<svg version="1.1" xmlns="http://www.w3.org/2000/svg" xmlns:xlink="http://www.w3.org/1999/xlink" width="653.46875" height="381.91009" viewBox="0,0,653.46875,381.91009"><g transform="translate(50.96875,5.91009)"><g data-paper-data="{&quot;isPaintingLayer&quot;:true}" fill-rule="nonzero" stroke="none" stroke-width="0" stroke-linecap="butt" stroke-linejoin="miter" stroke-miterlimit="10" stroke-dasharray="" stroke-dashoffset="0" style="mix-blend-mode: normal"><path d="M-3.96875,172.08991v-172h195v172z" fill="#b2b1ba"/><path d="M-7.5,376l7,-205.19999h374v202.25736z" fill="#968a8c"/><path d="M372.5,368.80001l-4,-203l107,-9l127,179c0,0 -82.38739,21.82515 -122.86636,27.633c-35.5444,5.09985 -107.13364,5.367 -107.13364,5.367z" fill="#968a8c"/><path d="M149.67186,126.29874l-0.05161,19.99996l-129.99063,-0.22728l0.05161,-19.99995z" fill="#a8db95"/><path d="M19.37444,166.31859l-0.19374,-19.99939l132.95892,-0.83412l0.19374,19.99939z" fill="#a80c14"/><path d="M20.02507,127.55379l-0.18646,-19.99939l127.9662,-0.83413l0.18646,19.99939z" fill="#b898bb"/><path d="M19.02507,109.55379l-0.18646,-19.99939l127.9662,-0.83413l0.18646,19.99939z" fill="#ac15ba"/><path d="M19.02507,92.55379l-0.18646,-19.99939l127.9662,-0.83413l0.18646,19.99939z" fill="#b898bb"/><path d="M20.02507,77.55379l-0.18646,-19.99939l127.9662,-0.83413l0.18646,19.99939z" fill="#cffffc"/><path d="M19.02507,59.55379l-0.18646,-19.99939l127.9662,-0.83413l0.18646,19.99939z" fill="#08ba03"/><path d="M20.02507,40.55379l-0.18646,-19.99939l127.9662,-0.83413l0.18646,19.99939z" fill="#1604ba"/><path d="M-50.96875,6.08991v-12h5v12z" fill="#b2b1ba"/><path d="M161.03125,171.08991v-172h195v172z" fill="#b2b1ba"/><path d="M314.67186,125.29874l-0.05161,19.99996l-129.99063,-0.22728l0.05161,-19.99995z" fill="#a8db95"/><path d="M184.37444,165.31859l-0.19374,-19.99939l132.95892,-0.83412l0.19374,19.99939z" fill="#a80c14"/><path d="M185.02507,126.55379l-0.18646,-19.99939l127.9662,-0.83413l0.18646,19.99939z" fill="#b898bb"/><path d="M184.02507,108.55379l-0.18646,-19.99939l127.9662,-0.83413l0.18646,19.99939z" fill="#ac15ba"/><path d="M184.02507,91.55379l-0.18646,-19.99939l127.9662,-0.83413l0.18646,19.99939z" fill="#b898bb"/><path d="M185.02507,76.55379l-0.18646,-19.99939l127.9662,-0.83413l0.18646,19.99939z" fill="#cffffc"/><path d="M184.02507,58.55379l-0.18646,-19.99939l127.9662,-0.83413l0.18646,19.99939z" fill="#08ba03"/><path d="M185.02507,39.55379l-0.18646,-19.99939l127.9662,-0.83413l0.18646,19.99939z" fill="#1604ba"/><path d="M324.03125,171.08991v-172h195v172z" fill="#b2b1ba"/><path d="M477.67186,125.29874l-0.05161,19.99996l-129.99063,-0.22728l0.05161,-19.99995z" fill="#a8db95"/><path d="M347.37444,165.31859l-0.19374,-19.99939l132.95892,-0.83412l0.19374,19.99939z" fill="#a80c14"/><path d="M348.02507,126.55379l-0.18646,-19.99939l127.96619,-0.83412l0.18646,19.99939z" fill="#b898bb"/><path d="M347.02507,108.55379l-0.18646,-19.99939l127.96619,-0.83413l0.18646,19.99939z" fill="#ac15ba"/><path d="M347.02507,91.55379l-0.18646,-19.99939l127.96619,-0.83413l0.18646,19.99939z" fill="#b898bb"/><path d="M348.02507,76.55379l-0.18646,-19.99939l127.96619,-0.83413l0.18646,19.99939z" fill="#cffffc"/><path d="M347.02507,58.55379l-0.18646,-19.99939l127.96619,-0.83413l0.18646,19.99939z" fill="#08ba03"/><path d="M348.02507,39.55379l-0.18646,-19.99939l127.96619,-0.83413l0.18646,19.99939z" fill="#1604ba"/></g></g></svg>