<svg version="1.1" xmlns="http://www.w3.org/2000/svg" xmlns:xlink="http://www.w3.org/1999/xlink" width="159" height="133" viewBox="0,0,159,133"><g transform="translate(-170.5,-120.80001)"><g data-paper-data="{&quot;isPaintingLayer&quot;:true}" fill-rule="nonzero" stroke="none" stroke-width="0" stroke-linecap="butt" stroke-linejoin="miter" stroke-miterlimit="10" stroke-dasharray="" stroke-dashoffset="0" style="mix-blend-mode: normal"><path d="M299.5,130.80001c0,-5.52285 4.47715,-10 10,-10c5.52285,0 10,4.47715 10,10c0,5.52285 -4.47715,10 -10,10c-5.52285,0 -10,-4.47715 -10,-10z" fill="#fee100"/><path d="M187.5,214.80001c0,-5.52285 4.47715,-10 10,-10c5.52285,0 10,4.47715 10,10c0,5.52285 -4.47715,10 -10,10c-5.52285,0 -10,-4.47715 -10,-10z" fill="#9d9b9e"/><path d="M269.5,218.80001c0,-5.52285 4.47715,-10 10,-10c5.52285,0 10,4.47715 10,10c0,5.52285 -4.47715,10 -10,10c-5.52285,0 -10,-4.47715 -10,-10z" fill="#9d9b9e"/><path d="M170.5,178.80001c0,-3.26874 2.74589,-23 5,-23c5.52285,0 17,34.47715 17,40c0,5.52285 -4.47715,10 -10,10c-5.52285,0 -12,-21.47715 -12,-27z" fill="#fee100"/><path d="M183.5,204.80001l-9,-43c0,0 15.93323,-12.50227 19.49451,-13.11207c16.50549,-2.82628 131.50549,-13.88793 131.50549,-13.88793l-27,87z" fill="#c5c3c6"/><path d="M184.5,233.80001v-6h121v6z" fill="#c5c3c6"/><path d="M190.5,212.80001v-6h121v6z" fill="#c5c3c6"/><path d="M186.60019,233.00292l-1.70921,-0.60523l17.67641,-23.80059l1.70921,0.60523z" fill="#c5c3c6"/><path d="M198.5,242.80001c0,-5.52285 4.47715,-10 10,-10c5.52285,0 10,4.47715 10,10c0,5.52285 -4.47715,10 -10,10c-5.52285,0 -10,-4.47715 -10,-10z" fill="#9d9b9e"/><path d="M279.5,243.80001c0,-5.52285 4.47715,-10 10,-10c5.52285,0 10,4.47715 10,10c0,5.52285 -4.47715,10 -10,10c-5.52285,0 -10,-4.47715 -10,-10z" fill="#9d9b9e"/><path d="M309.5,132.80001c0,-5.52285 4.47715,-10 10,-10c5.52285,0 10,4.47715 10,10c0,5.52285 -4.47715,10 -10,10c-5.52285,0 -10,-4.47715 -10,-10z" fill="#fee100"/></g></g></svg>