<svg version="1.1" xmlns="http://www.w3.org/2000/svg" xmlns:xlink="http://www.w3.org/1999/xlink" width="159" height="133" viewBox="0,0,159,133"><g transform="translate(-170.5,-120.80001)"><g data-paper-data="{&quot;isPaintingLayer&quot;:true}" fill-rule="nonzero" stroke="none" stroke-width="0" stroke-linecap="butt" stroke-linejoin="miter" stroke-miterlimit="10" stroke-dasharray="" stroke-dashoffset="0" style="mix-blend-mode: normal"><path d="M190.5,140.80001c-5.52285,0 -10,-4.47715 -10,-10c0,-5.52285 4.47715,-10 10,-10c5.52285,0 10,4.47715 10,10c0,5.52285 -4.47715,10 -10,10z" data-paper-data="{&quot;index&quot;:null}" fill="#fee100"/><path d="M302.5,224.80001c-5.52285,0 -10,-4.47715 -10,-10c0,-5.52285 4.47715,-10 10,-10c5.52285,0 10,4.47715 10,10c0,5.52285 -4.47715,10 -10,10z" data-paper-data="{&quot;index&quot;:null}" fill="#9d9b9e"/><path d="M220.5,228.80001c-5.52285,0 -10,-4.47715 -10,-10c0,-5.52285 4.47715,-10 10,-10c5.52285,0 10,4.47715 10,10c0,5.52285 -4.47715,10 -10,10z" data-paper-data="{&quot;index&quot;:null}" fill="#9d9b9e"/><path d="M317.5,205.80001c-5.52285,0 -10,-4.47715 -10,-10c0,-5.52285 11.47715,-40 17,-40c2.25411,0 5,19.73126 5,23c0,5.52285 -6.47715,27 -12,27z" data-paper-data="{&quot;index&quot;:null}" fill="#fee100"/><path d="M201.5,221.80001l-27,-87c0,0 115,11.06165 131.50549,13.88793c3.56128,0.6098 19.49451,13.11207 19.49451,13.11207l-9,43z" data-paper-data="{&quot;index&quot;:null}" fill="#c5c3c6"/><path d="M194.5,233.80001v-6h121v6z" data-paper-data="{&quot;index&quot;:null}" fill="#c5c3c6"/><path d="M188.5,212.80001v-6h121v6z" data-paper-data="{&quot;index&quot;:null}" fill="#c5c3c6"/><path d="M295.7234,209.20233l1.70921,-0.60523l17.67641,23.80059l-1.70921,0.60523z" data-paper-data="{&quot;index&quot;:null}" fill="#c5c3c6"/><path d="M291.5,252.80001c-5.52285,0 -10,-4.47715 -10,-10c0,-5.52285 4.47715,-10 10,-10c5.52285,0 10,4.47715 10,10c0,5.52285 -4.47715,10 -10,10z" data-paper-data="{&quot;index&quot;:null}" fill="#9d9b9e"/><path d="M210.5,253.80001c-5.52285,0 -10,-4.47715 -10,-10c0,-5.52285 4.47715,-10 10,-10c5.52285,0 10,4.47715 10,10c0,5.52285 -4.47715,10 -10,10z" data-paper-data="{&quot;index&quot;:null}" fill="#9d9b9e"/><path d="M180.5,142.80001c-5.52285,0 -10,-4.47715 -10,-10c0,-5.52285 4.47715,-10 10,-10c5.52285,0 10,4.47715 10,10c0,5.52285 -4.47715,10 -10,10z" data-paper-data="{&quot;index&quot;:null}" fill="#fee100"/></g></g></svg>