<svg version="1.1" xmlns="http://www.w3.org/2000/svg" xmlns:xlink="http://www.w3.org/1999/xlink" width="23.46954" height="32.92999" viewBox="0,0,23.46954,32.92999"><g transform="translate(-228.26523,-163.53501)"><g data-paper-data="{&quot;isPaintingLayer&quot;:true}" fill-rule="nonzero" stroke="none" stroke-width="0" stroke-linecap="butt" stroke-linejoin="miter" stroke-miterlimit="10" stroke-dasharray="" stroke-dashoffset="0" style="mix-blend-mode: normal"><path d="M229.66223,183.61263c0,-3.50312 -1.93688,-6.13447 -0.21542,-7.9013c1.76663,-1.81319 7.23755,-2.71587 10.83259,-2.71587c2.72979,0 7.39363,-2.27354 8.66124,-1.2292c2.02849,1.67121 0.83834,7.47799 0.83834,11.84636c0,7.09816 -3.51901,12.85236 -10.61718,12.85236c-7.09816,0 -9.49957,-5.7542 -9.49957,-12.85236z" fill="#7a00a7"/><path d="M251.73477,168.13392c0,3.54908 -5.25384,6.42618 -11.73477,6.42618c-6.48093,0 -11.73477,-2.87709 -11.73477,-6.42618c0,-1.66445 1.15554,-3.18109 3.05127,-4.3225c2.14651,-1.29239 5.242,2.3667 8.6835,2.3667c1.6371,0 2.63711,-0.37522 4.05271,-0.0436c1.45655,0.34122 3.32029,-3.07243 4.40292,-2.45647c2.0306,1.15529 3.27914,2.72573 3.27914,4.45586z" fill="#22c500"/></g></g></svg>