<svg version="1.1" xmlns="http://www.w3.org/2000/svg" xmlns:xlink="http://www.w3.org/1999/xlink" width="557.55556" height="426.92492" viewBox="0,0,557.55556,426.92492"><g transform="translate(44.5,28.5075)"><g data-paper-data="{&quot;isPaintingLayer&quot;:true}" fill-rule="nonzero" stroke-linecap="butt" stroke-linejoin="miter" stroke-miterlimit="10" stroke-dasharray="" stroke-dashoffset="0" style="mix-blend-mode: normal"><path d="M-43.5,397.41742v-424.92492h555.55556v424.92492z" fill="#544f5e" stroke="#000000" stroke-width="2"/><text transform="translate(55.69193,340.85084) rotate(-6.50682) scale(1.50859,1.50859)" font-size="40" xml:space="preserve" fill="#00ff05" fill-rule="nonzero" stroke="none" stroke-width="1" stroke-linecap="butt" stroke-linejoin="miter" stroke-miterlimit="10" stroke-dasharray="" stroke-dashoffset="0" font-family="Marker" font-weight="normal" text-anchor="start" style="mix-blend-mode: normal"><tspan x="0" dy="0">Grocery Grab!</tspan></text><text transform="translate(345.38889,329.84985) scale(0.5,0.5)" font-size="40" xml:space="preserve" fill="#00ff05" fill-rule="nonzero" stroke="none" stroke-width="1" stroke-linecap="butt" stroke-linejoin="miter" stroke-miterlimit="10" stroke-dasharray="" stroke-dashoffset="0" font-family="Marker" font-weight="normal" text-anchor="start" style="mix-blend-mode: normal"><tspan x="0" dy="0">Press Space</tspan></text><path d="M373.11647,100.62235c-2.22691,-5.05398 0.06488,-10.95631 5.11887,-13.18322c5.05398,-2.22691 10.95631,0.06488 13.18322,5.11887c2.22691,5.05398 -0.06488,10.95631 -5.11887,13.18322c-5.05398,2.22691 -10.95631,-0.06488 -13.18322,-5.11887z" fill="#fee100" stroke="none" stroke-width="0"/><path d="M304.49507,222.65146c-2.22691,-5.05398 0.06488,-10.95631 5.11887,-13.18322c5.05398,-2.22691 10.95631,0.06488 13.18322,5.11887c2.22691,5.05398 -0.06488,10.95631 -5.11887,13.18322c-5.05398,2.22691 -10.95631,-0.06488 -13.18322,-5.11887z" fill="#9d9b9e" stroke="none" stroke-width="0"/><path d="M381.14648,193.24804c-2.22691,-5.05398 0.06488,-10.95631 5.11887,-13.18322c5.05398,-2.22691 10.95631,0.06488 13.18322,5.11887c2.22691,5.05398 -0.06488,10.95631 -5.11887,13.18322c-5.05398,2.22691 -10.95631,-0.06488 -13.18322,-5.11887z" fill="#9d9b9e" stroke="none" stroke-width="0"/><path d="M289.34128,168.05628c-5.67692,-5.61608 -13.04626,-6.69582 -13.14966,-12.318c-0.10613,-5.76973 7.20184,-16.08267 12.96529,-21.90855c4.37631,-4.42371 8.16891,-15.62648 11.89347,-16.00641c5.96027,-0.60799 13.46231,10.62992 20.54139,17.63314c11.50281,11.37955 15.18612,26.30716 3.80659,37.80995c-11.37955,11.50281 -24.55426,6.16942 -36.05707,-5.21013z" fill="#ff0000" stroke="none" stroke-width="0"/><path d="M274.42247,196.56241c-1.31801,-2.99124 -6.76123,-22.15459 -4.69848,-23.06348c5.05398,-2.22691 29.45856,24.69549 31.68547,29.74947c2.22691,5.05398 -0.06488,10.95631 -5.11887,13.18322c-5.05398,2.22691 -19.64121,-14.81522 -21.86812,-19.8692z" fill="#fee100" stroke="none" stroke-width="0"/><path d="M296.80248,215.11329l-25.57429,-35.72052c0,0 9.53943,-17.86544 12.55249,-19.85944c13.96464,-9.24164 114.74137,-65.73422 114.74137,-65.73422l10.37211,90.50094z" fill="#c5c3c6" stroke="none" stroke-width="0"/><path d="M309.41089,241.24809l-2.41931,-5.49062l110.7276,-48.78932l2.41931,5.49062z" fill="#c5c3c6" stroke="none" stroke-width="0"/><path d="M306.43395,219.6116l-2.41931,-5.49062l110.7276,-48.78932l2.41931,5.49062z" fill="#c5c3c6" stroke="none" stroke-width="0"/><path d="M311.01138,239.67184l-1.80814,0.13533l6.57894,-28.90746l1.80814,-0.13533z" fill="#c5c3c6" stroke="none" stroke-width="0"/><path d="M325.85131,243.83898c-2.22691,-5.05398 0.06488,-10.95631 5.11887,-13.18322c5.05398,-2.22691 10.95631,0.06488 13.18322,5.11887c2.22691,5.05398 -0.06488,10.95631 -5.11887,13.18322c-5.05398,2.22691 -10.95631,-0.06488 -13.18322,-5.11887z" fill="#9d9b9e" stroke="none" stroke-width="0"/><path d="M400.37796,212.09347c-2.22691,-5.05398 0.06488,-10.95631 5.11887,-13.18322c5.05398,-2.22691 10.95631,0.06488 13.18322,5.11887c2.22691,5.05398 -0.06488,10.95631 -5.11887,13.18322c-5.05398,2.22691 -10.95631,-0.06488 -13.18322,-5.11887z" fill="#9d9b9e" stroke="none" stroke-width="0"/><path d="M383.07394,98.42038c-2.22691,-5.05398 0.06488,-10.95631 5.11887,-13.18322c5.05398,-2.22691 10.95631,0.06488 13.18322,5.11887c2.22691,5.05398 -0.06488,10.95631 -5.11887,13.18322c-5.05398,2.22691 -10.95631,-0.06488 -13.18322,-5.11887z" fill="#fee100" stroke="none" stroke-width="0"/><path d="M299.64347,107.47206c5.7514,5.68977 1.99107,18.81624 -8.39896,29.31881c-10.39001,10.50256 -23.47522,14.4041 -29.22662,8.71434c-2.69729,-2.66839 -3.30255,-6.97242 -2.11307,-11.87435c1.34685,-5.5504 12.23911,-4.70062 17.75642,-10.27769c2.62454,-2.65297 3.61967,-4.87506 6.42653,-6.63743c2.88803,-1.81337 0.34401,-10.30625 3.07781,-11.07322c5.12757,-1.43853 9.67414,-0.94415 12.47787,1.82953z" fill="#22c500" stroke="none" stroke-width="0"/><path d="M148.45426,92.1815c2.56611,-6.7107 0.78327,-13.17021 5.3752,-15.29381c4.71242,-2.17932 15.85393,0.09904 22.74072,2.73249c5.22928,1.99963 15.82891,1.06072 17.49219,3.98984c2.66165,4.68734 -3.87183,14.9392 -7.07175,23.3074c-5.19955,13.59748 -16.15576,22.04268 -29.75326,16.84312c-13.59748,-5.19955 -13.98263,-17.98158 -8.78308,-31.57906z" fill="#003cff" stroke="none" stroke-width="0"/><path d="M202.07567,78.69854c-2.59978,6.79874 -14.77175,8.46167 -27.18685,3.71425c-12.4151,-4.74742 -20.37201,-14.10742 -17.77222,-20.90618c1.21924,-3.18848 4.54381,-5.24735 9.01144,-6.04521c5.05863,-0.90338 8.3081,8.37361 14.90076,10.89458c3.13609,1.19921 5.3266,1.21295 7.79545,2.88517c2.54027,1.72061 8.61108,-3.45347 10.2338,-1.48047c3.04361,3.70057 4.28498,7.62354 3.01762,10.93784z" fill="#22c500" stroke="none" stroke-width="0"/></g></g></svg>